{"title":"Jupiter Ascending - {2015} - Cam - X264 - Maxillion","uid":11716659,"size":1157510795,"categoryP":"video","categoryS":"movies","magnet":"?xt=urn:btih:b775055a664b12e5aba3a6b6ce13f3135a59e224&amp;dn=Jupiter+Ascending+-+%7B2015%7D+-+Cam+-+X264+-+Maxillion&amp;tr=udp%3A%2F%2Ftracker.openbittorrent.com%3A80&amp;tr=udp%3A%2F%2Fopen.demonii.com%3A1337&amp;tr=udp%3A%2F%2Ftracker.coppersurfer.tk%3A6969&amp;tr=udp%3A%2F%2Fexodus.desync.com%3A6969","seeders":3,"leechers":1,"uploader":"makintos13","files":6,"time":1424611836,"description":"Jupiter Ascending - {2015} - Cam - X264 - Maxillion\n\n\nscreens:\n &lt;a href=&quot;\nhttp://imgsleek.com/img-54e9cbb7c0128.html&quot; rel=&quot;nofollow&quot; target=&quot;_NEW&quot;&gt;\nhttp://imgsleek.com/img-54e9cbb7c0128.html&lt;/a&gt;\n &lt;a href=&quot;\nhttp://imgsleek.com/img-54e9cbb7d7f5c.html&quot; rel=&quot;nofollow&quot; target=&quot;_NEW&quot;&gt;\nhttp://imgsleek.com/img-54e9cbb7d7f5c.html&lt;/a&gt;\n\nDirectors:\nAndy Wachowski (as The Wachowskis) , Lana Wachowski (as The Wachowskis)\nWriters:\nAndy Wachowski (as The Wachowskis) , Lana Wachowski (as The Wachowskis)\nStars:\nChanning Tatum, Mila Kunis, Eddie Redmayne\n\n\nStoryline:\n\nJupiter Jones was born under a night sky, with signs predicting that she was destined for great things. Now grown, Jupiter dreams of the stars but wakes up to the cold reality of a job cleaning other people's houses and an endless run of bad breaks. Only when Caine Wise, a genetically engineered ex-military hunter, arrives on Earth to track her down does Jupiter begin to glimpse the fate that has been waiting for her all along - her genetic signature marks her as next in line for an extraordinary inheritance that could alter the balance of the cosmos.\n\n\nFormat : MPEG-4\nFormat profile : Base Media\nCodec ID : isom\nFile size : 1.08 GiB\nDuration : 1h 52mn\nOverall bit rate mode : Variable\nOverall bit rate : 1 375 Kbps\nMovie name : Jupiter Ascending - {2015} - Cam - X264 -\nPerformer : Maxillion\nWriting application : Lavf56.1.0\nComment : A Maxillion Encode\n\nVideo\nID : 1\nFormat : AVC\nFormat/Info : Advanced Video Codec\nFormat profile : &lt;a class=&quot;__cf_email__&quot; href=&quot;/cdn-cgi/l/email-protection&quot; data-cfemail=&quot;d499b5bdba9498e0fae4&quot;&gt;[email&amp;#160;protected]&lt;/a&gt;&lt;script cf-hash='f9e31' type=&quot;text/javascript&quot;&gt;\n/* &lt;![CDATA[ */!function(){try{var t=&quot;currentScript&quot;in document?document.currentScript:function(){for(var t=document.getElementsByTagName(&quot;script&quot;),e=t.length;e--;)if(t[e].getAttribute(&quot;cf-hash&quot;))return t[e]}();if(t&amp;&amp;t.previousSibling){var e,r,n,i,c=t.previousSibling,a=c.getAttribute(&quot;data-cfemail&quot;);if(a){for(e=&quot;&quot;,r=parseInt(a.substr(0,2),16),n=2;a.length-n;n+=2)i=parseInt(a.substr(n,2),16)^r,e+=String.fromCharCode(i);e=document.createTextNode(e),c.parentNode.replaceChild(e,c)}}}catch(u){}}();/* ]]&gt; */&lt;/script&gt;\nFormat settings, CABAC : Yes\nFormat settings, ReFrames : 4 frames\nCodec ID : avc1\nCodec ID/Info : Advanced Video Coding\nDuration : 1h 52mn\nBit rate : 880 Kbps\nWidth : 700 pixels\nHeight : 400 pixels\nDisplay aspect ratio : 16:9\nOriginal display aspect ratio : 16:9\nFrame rate mode : Constant\nFrame rate : 50.000 fps\nColor space : YUV\nChroma subsampling : 4:2:0\nBit depth : 8 bits\nScan type : Progressive\nBits/(Pixel*Frame) : 0.063\nStream size : 706 MiB (64%)\nWriting library : x264 core 142 r2431 a5831aa\nEncoding settings : cabac=1 / ref=1 / deblock=1:0:0 / analyse=0x1:0x111 / me=hex / subme=2 / psy=1 / psy_rd=1.00:0.00 / mixed_ref=0 / me_range=16 / chroma_me=1 / trellis=0 / 8x8dct=0 / cqm=0 / deadzone=21,11 / fast_pskip=1 / chroma_qp_offset=0 / threads=12 / lookahead_threads=3 / sliced_threads=0 / nr=0 / decimate=1 / interlaced=0 / bluray_compat=0 / constrained_intra=0 / bframes=3 / b_pyramid=2 / b_adapt=1 / b_bias=0 / direct=1 / weightb=1 / open_gop=0 / weightp=1 / keyint=500 / keyint_min=50 / scenecut=40 / intra_refresh=0 / rc_lookahead=10 / rc=crf / mbtree=1 / crf=20.0 / qcomp=0.60 / qpmin=0 / qpmax=69 / qpstep=4 / vbv_maxrate=20000 / vbv_bufsize=25000 / crf_max=0.0 / nal_hrd=none / filler=0 / ip_ratio=1.40 / aq=1:1.00\nColor primaries : BT.601 NTSC\nTransfer characteristics : BT.709\nMatrix coefficients : BT.601\n\nAudio\nID : 2\nFormat : AAC\nFormat/Info : Advanced Audio Codec\nFormat profile : LC\nCodec ID : 40\nDuration : 1h 52mn\nBit rate mode : Variable\nBit rate : 486 Kbps\nChannel(s) : 2 channels\nChannel positions : Front: L R\nSampling rate : 48.0 KHz\nCompression mode : Lossy\nStream size : 390 MiB (35%)","torrent":{"xt":"urn:btih:b775055a664b12e5aba3a6b6ce13f3135a59e224","amp;dn":"Jupiter+Ascending+-+%7B2015%7D+-+Cam+-+X264+-+Maxillion","amp;tr":["udp%3A%2F%2Ftracker.openbittorrent.com%3A80","udp%3A%2F%2Fopen.demonii.com%3A1337","udp%3A%2F%2Ftracker.coppersurfer.tk%3A6969","udp%3A%2F%2Fexodus.desync.com%3A6969"],"infoHash":"b775055a664b12e5aba3a6b6ce13f3135a59e224","infoHashBuffer":{"type":"Buffer","data":[183,117,5,90,102,75,18,229,171,163,166,182,206,19,243,19,90,89,226,36]},"announce":[],"urlList":[]}}